<svg xmlns="http://www.w3.org/2000/svg" xmlns:xlink="http://www.w3.org/1999/xlink">

<symbol id="gitter" fill-rule="evenodd" clip-rule="evenodd" stroke-linejoin="round" stroke-miterlimit="1.414">
  <path d="M8.501 4.001H10.5V24H8.501V4.001zm6.999 0V24h-2V4.001h2zM3.5 0h2.001v15H3.5V0zm15 4.001h2V15h-2V4.001z" fill-rule="nonzero"/>
</symbol>

<symbol id="mail" viewBox="0 0 24 24" fill="none" stroke="#828282" stroke-width="2" stroke-linecap="round" stroke-linejoin="round">
  <path d="M4 4h16c1.1 0 2 .9 2 2v12c0 1.1-.9 2-2 2H4c-1.1 0-2-.9-2-2V6c0-1.1.9-2 2-2z" fill-rule="nonzero"/>
  <polyline points="22,6 12,13 2,6"></polyline>
</symbol>

</svg>
